<svg width="22" height="20" viewBox="0 0 22 20" fill="none" xmlns="http://www.w3.org/2000/svg">
<path d="M7.625 7.50537C7.625 7.60483 7.58549 7.70021 7.51517 7.77054C7.44484 7.84087 7.34946 7.88037 7.25 7.88037C7.15054 7.88037 7.05516 7.84087 6.98484 7.77054C6.91451 7.70021 6.875 7.60483 6.875 7.50537C6.875 7.40592 6.91451 7.31054 6.98484 7.24021C7.05516 7.16988 7.15054 7.13037 7.25 7.13037C7.34946 7.13037 7.44484 7.16988 7.51517 7.24021C7.58549 7.31054 7.625 7.40592 7.625 7.50537ZM7.625 7.50537H7.25M11.375 7.50537C11.375 7.60483 11.3355 7.70021 11.2652 7.77054C11.1948 7.84087 11.0995 7.88037 11 7.88037C10.9005 7.88037 10.8052 7.84087 10.7348 7.77054C10.6645 7.70021 10.625 7.60483 10.625 7.50537C10.625 7.40592 10.6645 7.31054 10.7348 7.24021C10.8052 7.16988 10.9005 7.13037 11 7.13037C11.0995 7.13037 11.1948 7.16988 11.2652 7.24021C11.3355 7.31054 11.375 7.40592 11.375 7.50537ZM11.375 7.50537H11M15.125 7.50537C15.125 7.60483 15.0855 7.70021 15.0152 7.77054C14.9448 7.84087 14.8495 7.88037 14.75 7.88037C14.6505 7.88037 14.5552 7.84087 14.4848 7.77054C14.4145 7.70021 14.375 7.60483 14.375 7.50537C14.375 7.40592 14.4145 7.31054 14.4848 7.24021C14.5552 7.16988 14.6505 7.13037 14.75 7.13037C14.8495 7.13037 14.9448 7.16988 15.0152 7.24021C15.0855 7.31054 15.125 7.40592 15.125 7.50537ZM15.125 7.50537H14.75M1.25 10.5154C1.25 12.1154 2.373 13.5094 3.957 13.7424C5.044 13.9024 6.142 14.0254 7.25 14.1114V18.7554L11.434 14.5724C11.6412 14.366 11.9197 14.2472 12.212 14.2404C14.1636 14.1924 16.1105 14.0261 18.042 13.7424C19.627 13.5094 20.75 12.1164 20.75 10.5144V4.49637C20.75 2.89437 19.627 1.50137 18.043 1.26837C15.711 0.926087 13.357 0.754631 11 0.755373C8.608 0.755373 6.256 0.930374 3.957 1.26837C2.373 1.50137 1.25 2.89537 1.25 4.49637V10.5144V10.5154Z" stroke="#8C8E90" stroke-width="1.05405" stroke-linecap="round" stroke-linejoin="round"/>
</svg>
