<svg width="19" height="22" viewBox="0 0 19 22" fill="none" xmlns="http://www.w3.org/2000/svg">
<path d="M8.46328 2.90875C8.39828 3.11875 8.36328 3.34175 8.36328 3.57275C8.36328 3.98675 8.69928 4.32275 9.11328 4.32275H13.6133C13.8122 4.32275 14.003 4.24374 14.1436 4.10308C14.2843 3.96243 14.3633 3.77167 14.3633 3.57275C14.3633 3.34766 14.3296 3.12384 14.2633 2.90875M8.46328 2.90875C8.60531 2.44945 8.89066 2.04769 9.27754 1.76229C9.66443 1.4769 10.1325 1.32287 10.6133 1.32275H12.1133C13.1253 1.32275 13.9803 1.99075 14.2633 2.90875M8.46328 2.90875C8.08728 2.93175 7.71328 2.95875 7.33928 2.98875C6.20828 3.08275 5.36328 4.04575 5.36328 5.18075V7.32275M14.2633 2.90875C14.6393 2.93175 15.0133 2.95875 15.3873 2.98875C16.5183 3.08275 17.3633 4.04575 17.3633 5.18075V15.5728C17.3633 16.1695 17.1262 16.7418 16.7043 17.1637C16.2823 17.5857 15.71 17.8228 15.1133 17.8228H12.8633M5.36328 7.32275H1.98828C1.36728 7.32275 0.863281 7.82675 0.863281 8.44775V19.6978C0.863281 20.3188 1.36728 20.8228 1.98828 20.8228H11.7383C12.3593 20.8228 12.8633 20.3188 12.8633 19.6978V17.8228M5.36328 7.32275H11.7383C12.3593 7.32275 12.8633 7.82675 12.8633 8.44775V17.8228M4.61328 14.8228L6.11328 16.3228L9.11328 12.5728" stroke="url(#paint0_linear_1002_5992)" stroke-width="1.5" stroke-linecap="round" stroke-linejoin="round"/>
<defs>
<linearGradient id="paint0_linear_1002_5992" x1="1.97337" y1="-13.3023" x2="17.4211" y2="-12.7297" gradientUnits="userSpaceOnUse">
<stop stop-color="#00A15D"/>
<stop offset="1" stop-color="#C16407"/>
</linearGradient>
</defs>
</svg>
