<svg width="21" height="20" viewBox="0 0 21 20" fill="none" xmlns="http://www.w3.org/2000/svg">
<path d="M1.49414 11.1978C1.49414 10.5768 1.99814 10.0728 2.61914 10.0728H4.86914C5.49014 10.0728 5.99414 10.5768 5.99414 11.1978V17.9478C5.99414 18.5688 5.49014 19.0728 4.86914 19.0728H2.61914C2.32077 19.0728 2.03462 18.9542 1.82365 18.7432C1.61267 18.5323 1.49414 18.2461 1.49414 17.9478V11.1978ZM8.24414 6.69775C8.24414 6.07675 8.74814 5.57275 9.36914 5.57275H11.6191C12.2401 5.57275 12.7441 6.07675 12.7441 6.69775V17.9478C12.7441 18.5688 12.2401 19.0728 11.6191 19.0728H9.36914C9.07077 19.0728 8.78462 18.9542 8.57365 18.7432C8.36267 18.5323 8.24414 18.2461 8.24414 17.9478V6.69775ZM14.9941 2.19775C14.9941 1.57675 15.4981 1.07275 16.1191 1.07275H18.3691C18.9901 1.07275 19.4941 1.57675 19.4941 2.19775V17.9478C19.4941 18.5688 18.9901 19.0728 18.3691 19.0728H16.1191C15.8208 19.0728 15.5346 18.9542 15.3236 18.7432C15.1127 18.5323 14.9941 18.2461 14.9941 17.9478V2.19775Z" stroke="url(#paint0_linear_1002_5989)" stroke-width="1.5" stroke-linecap="round" stroke-linejoin="round"/>
<defs>
<linearGradient id="paint0_linear_1002_5989" x1="2.70515" y1="-12.4273" x2="19.548" y2="-11.6895" gradientUnits="userSpaceOnUse">
<stop stop-color="#00A15D"/>
<stop offset="1" stop-color="#C16407"/>
</linearGradient>
</defs>
</svg>
