<svg width="17" height="15" viewBox="0 0 17 15" fill="none" xmlns="http://www.w3.org/2000/svg">
<path d="M3.07227 13.0728V2.12475C3.0722 1.89208 3.14941 1.66597 3.29179 1.48194C3.43416 1.29791 3.63363 1.16638 3.85886 1.10801C4.0841 1.04964 4.32234 1.06774 4.53618 1.15946C4.75001 1.25118 4.92732 1.41133 5.04027 1.61475L11.1043 12.5308C11.2172 12.7342 11.3945 12.8943 11.6084 12.986C11.8222 13.0778 12.0604 13.0959 12.2857 13.0375C12.5109 12.9791 12.7104 12.8476 12.8527 12.6636C12.9951 12.4795 13.0723 12.2534 13.0723 12.0208V1.07275M1.07227 5.07275H15.0723M1.07227 9.07275H15.0723" stroke="url(#paint0_linear_559_3545)" stroke-width="2" stroke-linecap="round" stroke-linejoin="round"/>
<defs>
<linearGradient id="paint0_linear_559_3545" x1="2.01416" y1="-7.92725" x2="15.1051" y2="-7.25827" gradientUnits="userSpaceOnUse">
<stop stop-color="#00A15D"/>
<stop offset="1" stop-color="#C16407"/>
</linearGradient>
</defs>
</svg>
