<svg width="20" height="19" viewBox="0 0 20 19" fill="none" xmlns="http://www.w3.org/2000/svg">
<path d="M13.9238 6.42069H18.9158L15.7348 3.23769C14.7106 2.21357 13.435 1.47709 12.036 1.1023C10.637 0.727511 9.16397 0.727621 7.76503 1.10262C6.3661 1.47761 5.09053 2.21428 4.06656 3.23856C3.0426 4.26284 2.30633 5.53864 1.93177 6.93769M0.885766 16.7167V11.7247M0.885766 11.7247H5.87777M0.885766 11.7247L4.06577 14.9077C5.08988 15.9318 6.36556 16.6683 7.76455 17.0431C9.16355 17.4179 10.6366 17.4178 12.0355 17.0428C13.4344 16.6678 14.71 15.9311 15.734 14.9068C16.7579 13.8825 17.4942 12.6067 17.8688 11.2077M18.9158 1.42869V6.41869" stroke="url(#paint0_linear_594_5141)" stroke-width="1.5" stroke-linecap="round" stroke-linejoin="round"/>
<defs>
<linearGradient id="paint0_linear_594_5141" x1="2.09786" y1="-11.5558" x2="18.9635" y2="-10.7487" gradientUnits="userSpaceOnUse">
<stop stop-color="#00A15D"/>
<stop offset="1" stop-color="#C16407"/>
</linearGradient>
</defs>
</svg>
