<svg width="22" height="22" viewBox="0 0 22 22" fill="none" xmlns="http://www.w3.org/2000/svg">
<path d="M15.7793 18.0312H6.77928M15.7793 18.0312C16.5749 18.0313 17.338 18.3473 17.9006 18.9099C18.4632 19.4725 18.7793 20.2356 18.7793 21.0312H3.77928C3.77928 20.2356 4.09535 19.4725 4.65796 18.9099C5.22057 18.3473 5.98363 18.0313 6.77928 18.0312M15.7793 18.0312V14.6562C15.7793 14.0353 15.2763 13.5312 14.6543 13.5312H13.7833M6.77928 18.0312V14.6562C6.77928 14.0353 7.28328 13.5312 7.90428 13.5312H8.77628M13.7833 13.5312H8.77628M13.7833 13.5312C13.2216 12.5612 12.886 11.477 12.8013 10.3593M8.77628 13.5312C9.3376 12.5611 9.67292 11.4769 9.75728 10.3593M12.8013 10.3593C13.8092 10.1266 14.749 9.66466 15.5493 9.00925M12.8013 10.3593C11.7998 10.5903 10.7588 10.5903 9.75728 10.3593M9.75728 10.3593C8.74968 10.1265 7.80932 9.66452 7.00928 9.00925M4.52928 3.51725C3.54728 3.66025 2.57528 3.83425 1.61328 4.03725C1.83628 5.34604 2.48686 6.54398 3.46323 7.44363C4.43959 8.34327 5.68665 8.89386 7.00928 9.00925M4.52928 3.51725V3.78125C4.52928 5.88925 5.49528 7.77125 7.00928 9.00925M4.52928 3.51725V2.00225C6.73528 1.69125 8.98928 1.53125 11.2793 1.53125C13.5703 1.53125 15.8243 1.69125 18.0293 2.00125V3.51725M18.0293 3.51725V3.78125C18.0293 5.88925 17.0633 7.77125 15.5493 9.00925M18.0293 3.51725C19.0066 3.65945 19.9791 3.83288 20.9453 4.03725C20.7223 5.34589 20.0719 6.54371 19.0957 7.44334C18.1196 8.34297 16.8717 8.89365 15.5493 9.00925" stroke="url(#paint0_linear_588_4840)" stroke-width="1.5" stroke-linecap="round" stroke-linejoin="round"/>
<defs>
<linearGradient id="paint0_linear_588_4840" x1="2.91391" y1="-13.0938" x2="21.0037" y2="-12.3082" gradientUnits="userSpaceOnUse">
<stop stop-color="#00A15D"/>
<stop offset="1" stop-color="#C16407"/>
</linearGradient>
</defs>
</svg>
