<svg width="22" height="19" viewBox="0 0 22 19" fill="none" xmlns="http://www.w3.org/2000/svg">
<path d="M11.4863 1.03125V17.5312M1.73633 9.28125H21.2363M5.86133 14.5312C7.15426 14.5312 8.39423 14.0176 9.30847 13.1034C10.2227 12.1892 10.7363 10.9492 10.7363 9.65625V9.28125M17.1113 14.5312C15.8184 14.5312 14.5784 14.0176 13.6642 13.1034C12.7499 12.1892 12.2363 10.9492 12.2363 9.65625V9.28125M3.23633 17.5312H19.7363C20.1342 17.5312 20.5157 17.3732 20.797 17.0919C21.0783 16.8106 21.2363 16.4291 21.2363 16.0312V2.53125C21.2363 2.13343 21.0783 1.75189 20.797 1.47059C20.5157 1.18929 20.1342 1.03125 19.7363 1.03125H3.23633C2.8385 1.03125 2.45697 1.18929 2.17567 1.47059C1.89436 1.75189 1.73633 2.13343 1.73633 2.53125V16.0312C1.73633 16.4291 1.89436 16.8106 2.17567 17.0919C2.45697 17.3732 2.8385 17.5312 3.23633 17.5312ZM15.8573 8.09125C14.4483 9.50125 11.6153 9.15225 11.6153 9.15225C11.6153 9.15225 11.2663 6.31925 12.6753 4.91025C13.0973 4.48829 13.6696 4.25124 14.2663 4.25124C14.8631 4.25124 15.4354 4.48829 15.8573 4.91025C16.2793 5.33221 16.5163 5.90451 16.5163 6.50125C16.5163 7.09799 16.2793 7.66929 15.8573 8.09125ZM10.2593 4.91125C11.6683 6.32025 11.3193 9.15325 11.3193 9.15325C11.3193 9.15325 8.48633 9.50125 7.07833 8.09225C6.8694 7.88332 6.70366 7.63528 6.59059 7.36229C6.47751 7.08931 6.41931 6.79673 6.41931 6.50125C6.41931 6.20577 6.47751 5.91319 6.59059 5.64021C6.70366 5.36722 6.8694 5.11918 7.07833 4.91025C7.28726 4.70132 7.5353 4.53558 7.80828 4.42251C8.08127 4.30943 8.37385 4.25124 8.66933 4.25124C8.9648 4.25124 9.25739 4.30943 9.53037 4.42251C9.80335 4.53558 10.0514 4.70132 10.2603 4.91025L10.2593 4.91125Z" stroke="url(#paint0_linear_589_4981)" stroke-width="1.5" stroke-linecap="round" stroke-linejoin="round"/>
<defs>
<linearGradient id="paint0_linear_589_4981" x1="3.04826" y1="-11.3438" x2="21.2808" y2="-10.3999" gradientUnits="userSpaceOnUse">
<stop stop-color="#00A15D"/>
<stop offset="1" stop-color="#C16407"/>
</linearGradient>
</defs>
</svg>
