<svg width="22" height="22" viewBox="0 0 22 22" fill="none" xmlns="http://www.w3.org/2000/svg">
<path d="M19.6914 10.5313V18.7813C19.6914 19.1791 19.5334 19.5606 19.2521 19.8419C18.9708 20.1232 18.5892 20.2813 18.1914 20.2813H3.94141C3.54358 20.2813 3.16205 20.1232 2.88075 19.8419C2.59944 19.5606 2.44141 19.1791 2.44141 18.7813V10.5313M10.6914 4.15625C10.6914 3.63708 10.5375 3.12956 10.249 2.69788C9.96058 2.2662 9.55061 1.92975 9.07095 1.73107C8.59129 1.53239 8.06349 1.4804 7.55429 1.58169C7.04509 1.68298 6.57736 1.93298 6.21025 2.3001C5.84314 2.66721 5.59313 3.13494 5.49184 3.64414C5.39056 4.15334 5.44254 4.68114 5.64122 5.16079C5.8399 5.64045 6.17636 6.05042 6.60803 6.33886C7.03971 6.6273 7.54723 6.78125 8.06641 6.78125H10.6914M10.6914 4.15625V6.78125M10.6914 4.15625C10.6914 3.63708 10.8454 3.12956 11.1338 2.69788C11.4222 2.2662 11.8322 1.92975 12.3119 1.73107C12.7915 1.53239 13.3193 1.4804 13.8285 1.58169C14.3377 1.68298 14.8054 1.93298 15.1726 2.3001C15.5397 2.66721 15.7897 3.13494 15.891 3.64414C15.9923 4.15334 15.9403 4.68114 15.7416 5.16079C15.5429 5.64045 15.2065 6.05042 14.7748 6.33886C14.3431 6.6273 13.8356 6.78125 13.3164 6.78125H10.6914M10.6914 6.78125V20.2813M2.06641 10.5313H20.0664C20.6874 10.5313 21.1914 10.0273 21.1914 9.40625V7.90625C21.1914 7.28525 20.6874 6.78125 20.0664 6.78125H2.06641C1.44541 6.78125 0.941406 7.28525 0.941406 7.90625V9.40625C0.941406 10.0273 1.44541 10.5313 2.06641 10.5313Z" stroke="url(#paint0_linear_589_4984)" stroke-width="1.5" stroke-linecap="round" stroke-linejoin="round"/>
<defs>
<linearGradient id="paint0_linear_589_4984" x1="2.30379" y1="-12.5313" x2="21.246" y2="-11.6352" gradientUnits="userSpaceOnUse">
<stop stop-color="#00A15D"/>
<stop offset="1" stop-color="#C16407"/>
</linearGradient>
</defs>
</svg>
