<svg width="14" height="18" viewBox="0 0 14 18" fill="none" xmlns="http://www.w3.org/2000/svg">
<path d="M3.625 5.625H3.0625C2.61495 5.625 2.18573 5.80279 1.86926 6.11926C1.55279 6.43573 1.375 6.86495 1.375 7.3125V12.9375C1.375 13.3851 1.55279 13.8143 1.86926 14.1307C2.18573 14.4472 2.61495 14.625 3.0625 14.625H8.6875C9.13505 14.625 9.56427 14.4472 9.88074 14.1307C10.1972 13.8143 10.375 13.3851 10.375 12.9375V7.3125C10.375 6.86495 10.1972 6.43573 9.88074 6.11926C9.56427 5.80279 9.13505 5.625 8.6875 5.625H8.125M8.125 3.375L5.875 1.125M5.875 1.125L3.625 3.375M5.875 1.125V9.5625M10.375 7.875H10.9375C11.3851 7.875 11.8143 8.05279 12.1307 8.36926C12.4472 8.68573 12.625 9.11495 12.625 9.5625V15.1875C12.625 15.6351 12.4472 16.0643 12.1307 16.3807C11.8143 16.6972 11.3851 16.875 10.9375 16.875H5.3125C4.86495 16.875 4.43573 16.6972 4.11926 16.3807C3.80279 16.0643 3.625 15.6351 3.625 15.1875V14.625" stroke="#979797" stroke-width="1.125" stroke-linecap="round" stroke-linejoin="round"/>
</svg>
