<svg width="16" height="14" viewBox="0 0 16 14" fill="none" xmlns="http://www.w3.org/2000/svg">
<path d="M10.25 4.75H13.0625M10.25 7H13.0625M10.25 9.25H13.0625M2.375 12.625H13.625C14.0726 12.625 14.5018 12.4472 14.8182 12.1307C15.1347 11.8143 15.3125 11.3851 15.3125 10.9375V3.0625C15.3125 2.61495 15.1347 2.18573 14.8182 1.86926C14.5018 1.55279 14.0726 1.375 13.625 1.375H2.375C1.92745 1.375 1.49822 1.55279 1.18176 1.86926C0.86529 2.18573 0.6875 2.61495 0.6875 3.0625V10.9375C0.6875 11.3851 0.86529 11.8143 1.18176 12.1307C1.49822 12.4472 1.92745 12.625 2.375 12.625ZM6.875 5.03125C6.875 5.21592 6.83863 5.39878 6.76796 5.5694C6.69728 5.74001 6.5937 5.89504 6.46312 6.02562C6.33254 6.1562 6.17751 6.25978 6.0069 6.33046C5.83628 6.40113 5.65342 6.4375 5.46875 6.4375C5.28408 6.4375 5.10122 6.40113 4.9306 6.33046C4.75999 6.25978 4.60496 6.1562 4.47438 6.02562C4.3438 5.89504 4.24022 5.74001 4.16954 5.5694C4.09887 5.39878 4.0625 5.21592 4.0625 5.03125C4.0625 4.65829 4.21066 4.3006 4.47438 4.03688C4.7381 3.77316 5.09579 3.625 5.46875 3.625C5.84171 3.625 6.1994 3.77316 6.46312 4.03688C6.72684 4.3006 6.875 4.65829 6.875 5.03125ZM7.8455 9.78325C7.11373 10.173 6.29711 10.3763 5.468 10.375C4.6394 10.376 3.82333 10.1728 3.092 9.78325C3.27071 9.29668 3.59446 8.87669 4.0195 8.58C4.44454 8.28331 4.9504 8.12422 5.46875 8.12422C5.9871 8.12422 6.49296 8.28331 6.918 8.58C7.34304 8.87669 7.66679 9.29668 7.8455 9.78325Z" stroke="#979797" stroke-width="1.125" stroke-linecap="round" stroke-linejoin="round"/>
</svg>
