<svg width="13" height="12" viewBox="0 0 13 12" fill="none" xmlns="http://www.w3.org/2000/svg">
<path d="M1.20099 0.533357C1.20099 0.407701 1.15108 0.287191 1.06222 0.198339C0.97337 0.109487 0.852861 0.0595703 0.727205 0.0595703C0.601549 0.0595703 0.481039 0.109487 0.392187 0.198339C0.303335 0.287191 0.253418 0.407701 0.253418 0.533357V9.26999C0.253418 9.60795 0.253418 9.88907 0.272369 10.1196C0.291321 10.3597 0.334278 10.5846 0.442933 10.7975C0.609225 11.1246 0.874815 11.3906 1.20162 11.5574C1.41451 11.6655 1.64003 11.7078 1.87945 11.728C2.1094 11.7463 2.39114 11.7463 2.72722 11.7463H12.0981C12.2237 11.7463 12.3443 11.6964 12.4331 11.6075C12.522 11.5187 12.5719 11.3982 12.5719 11.2725C12.5719 11.1469 12.522 11.0264 12.4331 10.9375C12.3443 10.8487 12.2237 10.7987 12.0981 10.7987H2.7468C2.38609 10.7987 2.14351 10.7987 1.95716 10.7829C1.77585 10.7684 1.68931 10.7419 1.63182 10.7128C1.48323 10.637 1.36249 10.516 1.2869 10.3673C1.25785 10.3104 1.23131 10.2232 1.21678 10.0419C1.20181 9.77859 1.19654 9.51478 1.20099 9.25103V8.33568L3.46696 6.44811C3.94959 6.04571 4.2585 5.94527 4.48718 5.9598C4.72091 5.97433 5.00897 6.11709 5.43033 6.53845L5.43475 6.54287C5.95086 7.05898 6.48087 7.39758 7.08227 7.40516C7.67861 7.41274 8.20861 7.09309 8.71715 6.64773L12.4102 3.41651C12.4588 3.37607 12.4988 3.32631 12.5279 3.27016C12.557 3.21401 12.5745 3.1526 12.5795 3.08956C12.5845 3.02652 12.5768 2.96311 12.5569 2.90309C12.537 2.84307 12.5053 2.78764 12.4636 2.74007C12.4219 2.6925 12.3712 2.65375 12.3143 2.62611C12.2574 2.59846 12.1956 2.58249 12.1324 2.57912C12.0693 2.57575 12.0061 2.58506 11.9466 2.6065C11.8871 2.62793 11.8325 2.66106 11.786 2.70393L8.09301 5.93453C7.63439 6.33567 7.33179 6.46011 7.0949 6.45696C6.86369 6.4538 6.55984 6.32682 6.10437 5.87199L6.10058 5.8682C5.63058 5.3982 5.13405 5.05076 4.54719 5.01349C3.95654 4.97558 3.4101 5.26175 2.86051 5.71911L1.20099 7.1032V0.533357Z" fill="url(#paint0_linear_540_3512)"/>
<defs>
<linearGradient id="paint0_linear_540_3512" x1="1.0828" y1="-8.70549" x2="12.6154" y2="-8.17264" gradientUnits="userSpaceOnUse">
<stop stop-color="#00A15D"/>
<stop offset="1" stop-color="#C16407"/>
</linearGradient>
</defs>
</svg>
