<svg width="16" height="15" viewBox="0 0 16 15" fill="none" xmlns="http://www.w3.org/2000/svg">
<path d="M14.6758 7.07275C14.6758 6.6252 14.498 6.19598 14.1815 5.87951C13.8651 5.56304 13.4358 5.38525 12.9883 5.38525H10.1758C10.1758 5.98199 9.93873 6.55429 9.51677 6.97624C9.09481 7.3982 8.52252 7.63525 7.92578 7.63525C7.32904 7.63525 6.75675 7.3982 6.33479 6.97624C5.91283 6.55429 5.67578 5.98199 5.67578 5.38525H2.86328C2.41573 5.38525 1.98651 5.56304 1.67004 5.87951C1.35357 6.19598 1.17578 6.6252 1.17578 7.07275M14.6758 7.07275V11.5728C14.6758 12.0203 14.498 12.4495 14.1815 12.766C13.8651 13.0825 13.4358 13.2603 12.9883 13.2603H2.86328C2.41573 13.2603 1.98651 13.0825 1.67004 12.766C1.35357 12.4495 1.17578 12.0203 1.17578 11.5728V7.07275M14.6758 7.07275V4.82275M1.17578 7.07275V4.82275M14.6758 4.82275C14.6758 4.3752 14.498 3.94598 14.1815 3.62951C13.8651 3.31304 13.4358 3.13525 12.9883 3.13525H2.86328C2.41573 3.13525 1.98651 3.31304 1.67004 3.62951C1.35357 3.94598 1.17578 4.3752 1.17578 4.82275M14.6758 4.82275V2.57275C14.6758 2.1252 14.498 1.69598 14.1815 1.37951C13.8651 1.06304 13.4358 0.885254 12.9883 0.885254H2.86328C2.41573 0.885254 1.98651 1.06304 1.67004 1.37951C1.35357 1.69598 1.17578 2.1252 1.17578 2.57275V4.82275" stroke="url(#paint0_linear_559_3570)" stroke-width="1.5" stroke-linecap="round" stroke-linejoin="round"/>
<defs>
<linearGradient id="paint0_linear_559_3570" x1="2.08404" y1="-8.396" x2="14.7116" y2="-7.79261" gradientUnits="userSpaceOnUse">
<stop stop-color="#00A15D"/>
<stop offset="1" stop-color="#C16407"/>
</linearGradient>
</defs>
</svg>
